<?xml version="1.0" encoding="UTF-8" standalone="no"?>
<svg width="291px" height="291px" viewBox="0 0 291 291" version="1.1" xmlns="http://www.w3.org/2000/svg" xmlns:xlink="http://www.w3.org/1999/xlink" xmlns:sketch="http://www.bohemiancoding.com/sketch/ns">
    <!-- Generator: Sketch 3.3.3 (12081) - http://www.bohemiancoding.com/sketch -->
    <title>alarm</title>
    <desc>Created with Sketch.</desc>
    <defs></defs>
    <g id="Page-1" stroke="none" stroke-width="1" fill="none" fill-rule="evenodd" sketch:type="MSPage">
        <g id="alarm" sketch:type="MSArtboardGroup" fill="#000000">
            <g id="Group" sketch:type="MSLayerGroup" transform="translate(47.000000, 49.000000)">
                <path d="M187.928889,66.1652393 C193.893333,59.2261965 197.511111,50.3813602 197.511111,40.656927 C197.56,19.2534005 180.155556,1.75919395 158.204444,0.537531486 C157.422222,0.488664987 156.688889,0.488664987 155.857778,0.488664987 C145.884444,0.439798489 136.742222,3.8115869 129.555556,9.33350126 L155.857778,34.9395466 L150.724444,40.0216625 C138.16,30.5415617 122.857778,24.3843829 106.235556,22.9672544 L106.235556,22.9183879 C106.235556,18.7647355 102.813333,15.3440806 98.6577778,15.3440806 C94.5022222,15.3440806 91.08,18.7647355 91.08,22.9183879 L91.08,22.9672544 C74.5066667,24.3843829 59.2533333,30.5415617 46.7377778,40.0216625 L41.6533333,34.9395466 L67.9555556,9.33350126 C60.7688889,3.7627204 51.6266667,0.439798489 41.7022222,0.488664987 C40.92,0.488664987 40.1377778,0.537531486 39.3555556,0.537531486 C17.3555556,1.75919395 -0.0488888889,19.2534005 0.0488888889,40.656927 C0.0488888889,50.3324937 3.66666667,59.2261965 9.63111111,66.1652393 L36.0311111,40.461461 L40.6755556,45.1037783 C23.5155556,60.6921914 12.76,83.2196474 12.76,108.239295 C12.76,129.691688 20.68,149.287154 33.7822222,164.289169 L15.9866667,186.083627 L22,191.06801 L39.2088889,170.104282 C54.6577778,184.861965 75.5822222,194 98.6577778,194 L98.7066667,194 L98.8533333,194 C121.928889,194 142.951111,184.861965 158.4,170.104282 L175.608889,191.116877 L181.622222,186.18136 L163.777778,164.338035 C176.88,149.287154 184.8,129.691688 184.8,108.288161 C184.8,83.3173804 174.044444,60.7410579 156.835556,45.1037783 L161.48,40.461461 L187.928889,66.1652393 L187.928889,66.1652393 Z M10.8533333,54.1440806 C8.8,49.9415617 7.72444444,45.1526448 7.67555556,40.461461 C7.62666667,23.3093199 21.56,8.89370277 39.6977778,7.8186398 C45.9066667,7.47657431 50.9911111,8.50277078 55.3911111,10.7994962 L10.8533333,54.1440806 L10.8533333,54.1440806 Z M176.928889,107.261965 C176.928889,150.117884 141.728889,184.031234 98.6577778,184.031234 C55.6355556,184.031234 20.5333333,150.117884 20.5333333,107.261965 C20.5333333,64.4060453 55.6355556,29.7108312 98.7066667,29.7108312 C141.777778,29.7108312 176.928889,64.3571788 176.928889,107.261965 L176.928889,107.261965 Z M142.12,10.8483627 C146.422222,8.50277078 151.555556,7.52544081 157.813333,7.8675063 C176,8.84483627 189.884444,23.2604534 189.835556,40.5103275 C189.835556,45.2015113 188.711111,49.9904282 186.657778,54.2418136 L142.12,10.8483627 L142.12,10.8483627 Z" id="Shape" sketch:type="MSShapeGroup"></path>
                <path d="M98.7555556,50.3324937 L98.7555556,112.881612 L51.8222222,112.881612 L51.8222222,120.700252 L106.577778,120.700252 L106.577778,50.3324937 L98.7555556,50.3324937 Z" id="Shape" sketch:type="MSShapeGroup"></path>
            </g>
        </g>
    </g>
</svg>