<?xml version="1.0" encoding="UTF-8" standalone="no"?>
<svg width="291px" height="291px" viewBox="0 0 291 291" version="1.1" xmlns="http://www.w3.org/2000/svg" xmlns:xlink="http://www.w3.org/1999/xlink" xmlns:sketch="http://www.bohemiancoding.com/sketch/ns">
    <!-- Generator: Sketch 3.3.3 (12081) - http://www.bohemiancoding.com/sketch -->
    <title>bulb</title>
    <desc>Created with Sketch.</desc>
    <defs></defs>
    <g id="Page-1" stroke="none" stroke-width="1" fill="none" fill-rule="evenodd" sketch:type="MSPage">
        <g id="bulb" sketch:type="MSArtboardGroup" fill="#000000">
            <g id="ios-lightbulb-outline" sketch:type="MSLayerGroup" transform="translate(74.000000, 34.000000)">
                <g id="Group" sketch:type="MSShapeGroup">
                    <path d="M144,70.45 C144,31.55 110.95,0 72,0 C33.05,0 0,31.55 0,70.5 C0,86 6.6,100 15.1,112 L14.95,112 C20.4,119.5 25.65,125.85 30.7,134.5 C41.7,153.4 40,171.65 40.05,175.3 L40.05,176 L104.05,176 L104.05,175.3 C104.05,170.85 102.25,153.4 113.25,134.5 C118.3,125.85 123.55,119.5 129,112 L128.95,112 C137.4,100 144,86 144,70.45 L144,70.45 Z M119.5,111.2 C119.2,111.6 118.95,111.95 118.65,112.35 C114.6,117.8 110.4,123.45 106.3,130.4 C97.65,145.25 96.1,159.35 95.9,167.95 L88,167.95 L88,112 L104,80 L95.7,80 L80,112 L80,168 L64,168 L64,112 L48.3,80 L40,80 L56,112 L56,168 L48.05,168 C47.8,159.4 46.1,145.15 37.6,130.5 C35.35,126.65 33.05,123 30.75,120 L30.85,120 L21.55,107.2 C13.65,96.4 8,83.65 8,70.4 C8,53.7 16,38 27.8,26.2 C39.6,14.4 55.3,7.85 72,7.85 C88.7,7.85 104.4,14.4 116.2,26.2 C128,38 136,53.7 136,70.4 C136,83.65 130.35,96.35 122.45,107.15 L119.5,111.2 L119.5,111.2 Z" id="Shape"></path>
                    <rect id="Rectangle-path" x="56" y="216" width="32" height="8"></rect>
                    <rect id="Rectangle-path" x="48" y="200" width="48" height="8"></rect>
                    <rect id="Rectangle-path" x="48" y="184" width="48" height="8"></rect>
                </g>
            </g>
        </g>
    </g>
</svg>