<?xml version="1.0" encoding="UTF-8" standalone="no"?>
<svg width="291px" height="291px" viewBox="0 0 291 291" version="1.1" xmlns="http://www.w3.org/2000/svg" xmlns:xlink="http://www.w3.org/1999/xlink" xmlns:sketch="http://www.bohemiancoding.com/sketch/ns">
    <!-- Generator: Sketch 3.3.3 (12081) - http://www.bohemiancoding.com/sketch -->
    <title>cloud</title>
    <desc>Created with Sketch.</desc>
    <defs></defs>
    <g id="Page-1" stroke="none" stroke-width="1" fill="none" fill-rule="evenodd" sketch:type="MSPage">
        <g id="cloud" sketch:type="MSArtboardGroup" fill="#010101">
            <g id="ios-rainy-outline" sketch:type="MSLayerGroup" transform="translate(60.000000, 60.000000)">
                <path d="M130.684375,40.01875 C129.021875,40.01875 127.3,39.959375 125.696875,40.196875 C120.76875,18.346875 104.796875,0.059375 78.01875,0.059375 C47.796875,0.059375 29.153125,22.621875 29.153125,49.696875 C29.153125,51.359375 29.2125,52.9625 29.390625,54.565625 C12.94375,56.05 1.687539e-14,73.15 1.687539e-14,90.071875 C1.687539e-14,107.409375 13.596875,122.490625 30.6375,123.440625 L16.090625,143.865625 C15.4375,144.815625 14.903125,145.884375 14.903125,147.13125 C14.903125,149.8625 17.1,152.059375 19.83125,152.059375 C21.6125,152.059375 23.15625,151.109375 24.046875,149.684375 L42.453125,123.678125 L63.8875,123.678125 L36.515625,162.746875 C35.803125,163.696875 35.26875,164.884375 35.26875,166.071875 C35.26875,168.803125 37.465625,171 40.196875,171 C41.978125,171 43.521875,169.93125 44.471875,168.446875 L75.703125,123.61875 L98.20625,123.61875 L83.421875,144.04375 C82.709375,144.99375 82.115625,146.3 82.115625,147.36875 C82.115625,150.1 84.3125,152.296875 87.04375,152.296875 C88.884375,152.296875 90.25,151.2875 91.31875,149.8625 L110.08125,123.559375 L130.684375,123.559375 C130.74375,123.559375 130.8625,123.5 130.921875,123.5 L103.55,162.628125 C102.778125,163.6375 102.184375,164.765625 102.184375,166.071875 C102.184375,168.803125 104.38125,171 107.1125,171 C109.0125,171 110.378125,169.8125 111.50625,168.328125 L144.459375,120.946875 C159.896875,115.06875 170.940625,99.690625 170.940625,82.234375 C171,59.85 152.95,40.01875 130.684375,40.01875 L130.684375,40.01875 Z M130.684375,112.871875 L105.6875,112.871875 L105.628125,112.8125 L105.56875,112.871875 L32.3,112.871875 C26.3625,112.871875 20.721875,110.140625 16.446875,105.80625 C12.171875,101.471875 9.85625,95.59375 9.85625,89.5375 C9.85625,77.9 18.88125,65.90625 30.578125,64.00625 C31.5875,63.828125 36.040625,63.175 39.484375,62.878125 C39.484375,62.878125 39.1875,59.553125 39.06875,56.821875 C39.009375,54.090625 39.009375,50.94375 39.009375,49.6375 C39.009375,28.025 56.525,9.915625 78.078125,9.915625 C87.103125,9.915625 95.59375,12.94375 102.6,18.64375 C109.428125,24.165625 114.2375,33.725 116.1375,42.215625 L118.096875,50.94375 L126.94375,49.815625 C128.25,49.6375 129.496875,49.578125 130.74375,49.578125 C147.546875,49.578125 161.203125,64.95625 161.203125,81.878125 C161.14375,98.740625 147.4875,112.871875 130.684375,112.871875 L130.684375,112.871875 Z" id="Shape" sketch:type="MSShapeGroup"></path>
            </g>
        </g>
    </g>
</svg>