<?xml version="1.0" encoding="UTF-8" standalone="no"?>
<svg width="291px" height="291px" viewBox="0 0 291 291" version="1.1" xmlns="http://www.w3.org/2000/svg" xmlns:xlink="http://www.w3.org/1999/xlink" xmlns:sketch="http://www.bohemiancoding.com/sketch/ns">
    <!-- Generator: Sketch 3.3.3 (12081) - http://www.bohemiancoding.com/sketch -->
    <title>cross</title>
    <desc>Created with Sketch.</desc>
    <defs></defs>
    <g id="Page-1" stroke="none" stroke-width="1" fill="none" fill-rule="evenodd" sketch:type="MSPage">
        <g id="cross" sketch:type="MSArtboardGroup" fill="#010101">
            <g id="ios-close-outline" sketch:type="MSLayerGroup" transform="translate(58.000000, 58.000000)">
                <g id="Group" sketch:type="MSShapeGroup">
                    <path d="M149.812172,25.6189904 C115.651126,-8.53966346 60.2446026,-8.53966346 26.0414868,25.6189904 C-8.16162913,59.7776442 -8.11955888,115.180288 26.0414868,149.38101 C60.2025324,183.539663 115.609056,183.539663 149.812172,149.38101 C184.015288,115.222356 183.973217,59.7776442 149.812172,25.6189904 L149.812172,25.6189904 Z M144.637531,144.206731 C113.379332,175.46274 62.4743261,175.46274 31.2161279,144.206731 C-0.0420702532,112.950721 -0.0420702532,62.0492788 31.2161279,30.7932692 C62.4743261,-0.462740385 113.379332,-0.462740385 144.637531,30.7932692 C175.937799,62.0492788 175.937799,112.950721 144.637531,144.206731 L144.637531,144.206731 Z" id="Shape"></path>
                    <path d="M123.349982,47.1153846 L87.8426888,82.5360577 L52.503676,47.2836538 L47.5393862,52.2475962 L82.8783989,87.5 L47.5393862,122.752404 L52.503676,127.716346 L87.8426888,92.4639423 L123.349982,127.884615 L128.314272,122.920673 L92.8069786,87.5 L128.314272,52.0793269 L123.349982,47.1153846 Z" id="Shape"></path>
                </g>
            </g>
        </g>
    </g>
</svg>