<?xml version="1.0" encoding="UTF-8" standalone="no"?>
<svg width="291px" height="291px" viewBox="0 0 291 291" version="1.1" xmlns="http://www.w3.org/2000/svg" xmlns:xlink="http://www.w3.org/1999/xlink" xmlns:sketch="http://www.bohemiancoding.com/sketch/ns">
    <!-- Generator: Sketch 3.3.3 (12081) - http://www.bohemiancoding.com/sketch -->
    <title>dashboard</title>
    <desc>Created with Sketch.</desc>
    <defs></defs>
    <g id="Page-1" stroke="none" stroke-width="1" fill="none" fill-rule="evenodd" sketch:type="MSPage">
        <g id="dashboard" sketch:type="MSArtboardGroup" fill="#000000">
            <g id="ios-analytics-outline" sketch:type="MSLayerGroup" transform="translate(59.000000, 59.000000)">
                <g id="Group" sketch:type="MSShapeGroup">
                    <path d="M87,6.21428571 C97.9087902,6.21428571 108.487835,8.34928125 118.443509,12.5602366 C128.062835,16.6290402 136.703022,22.454933 144.124045,29.8759554 C151.545067,37.2969777 157.37096,45.9375536 161.439763,55.5564911 C165.650719,65.5121652 167.785714,76.0912098 167.785714,87 C167.785714,97.9087902 165.650719,108.487835 161.439763,118.443509 C157.37096,128.062835 151.545067,136.703022 144.124045,144.124045 C136.703022,151.545067 128.062446,157.37096 118.443509,161.439763 C108.487835,165.650719 97.9087902,167.785714 87,167.785714 C76.0912098,167.785714 65.5121652,165.650719 55.5564911,161.439763 C45.9371652,157.37096 37.2969777,151.545067 29.8759554,144.124045 C22.454933,136.703022 16.6290402,128.062446 12.5602366,118.443509 C8.34928125,108.487835 6.21428571,97.9087902 6.21428571,87 C6.21428571,76.0912098 8.34928125,65.5121652 12.5602366,55.5564911 C16.6290402,45.9371652 22.454933,37.2969777 29.8759554,29.8759554 C37.2969777,22.454933 45.9375536,16.6290402 55.5564911,12.5602366 C65.5121652,8.34928125 76.0912098,6.21428571 87,6.21428571 L87,6.21428571 Z M87,0 C38.9511429,0 0,38.9511429 0,87 C0,135.048857 38.9511429,174 87,174 C135.048857,174 174,135.048857 174,87 C174,38.9511429 135.048857,0 87,0 L87,0 L87,0 Z" id="Shape"></path>
                    <path d="M29.4308571,111.857143 C19.6231607,111.857143 13.4415,104.692071 13.1564196,104.354558 C12.0529955,103.049946 12.2238884,101.103321 13.5378214,100.007665 C14.8482589,98.9151161 16.8007098,99.080183 17.9064643,100.375862 C18.1410536,100.648125 23.5793304,106.822018 31.7355804,105.49721 C36.4366875,104.734406 42.6416518,95.5228929 46.7477411,89.427067 C48.3987991,86.9759196 49.8245893,84.8591786 51.103567,83.2687098 C57.6180804,75.1648929 64.2696964,74.2063393 68.7074732,74.8304866 C78.0828884,76.148692 85.9358036,85.5105134 89.5598973,94.2042991 C92.4549777,101.150317 96.9556741,105.178728 102.232379,105.548478 C108.216737,105.960562 114.481902,101.709214 118.974054,94.1545848 C119.451,93.352942 119.969116,92.4083705 120.51908,91.4086473 C124.201821,84.7042098 129.768268,74.571817 140.618411,74.571817 C152.715295,74.571817 160.798138,87.8882545 161.136429,88.455308 C162.011089,89.9211027 161.523268,91.8141295 160.046598,92.6829643 C158.570705,93.5517991 156.664473,93.0666964 155.789813,91.6009018 C155.775442,91.5768214 154.044763,88.7217455 151.183862,85.9427946 C148.742424,83.5708795 144.927629,80.7433795 140.618411,80.7433795 C133.457223,80.7433795 129.308022,88.2956786 125.974058,94.364317 C125.399237,95.4114241 124.855487,96.4006607 124.32533,97.2920223 C118.608964,106.905134 110.18783,112.29758 101.794661,111.704504 C94.0458348,111.161531 87.661433,105.784621 83.8182857,96.5649509 C79.929308,87.2357545 72.8349241,81.6440625 67.836308,80.940683 C63.7193438,80.3604241 59.7208393,82.4402679 55.9600313,87.1184598 C54.844567,88.5061875 53.4203304,90.6205982 51.9125893,92.8585179 C46.6502545,100.670652 40.1011741,110.392902 32.7376339,111.587987 C31.5953705,111.77325 30.491558,111.857143 29.4308571,111.857143 L29.4308571,111.857143 Z" id="Shape"></path>
                </g>
            </g>
        </g>
    </g>
</svg>