<?xml version="1.0" encoding="UTF-8" standalone="no"?>
<svg width="291px" height="291px" viewBox="0 0 291 291" version="1.1" xmlns="http://www.w3.org/2000/svg" xmlns:xlink="http://www.w3.org/1999/xlink" xmlns:sketch="http://www.bohemiancoding.com/sketch/ns">
    <!-- Generator: Sketch 3.3.3 (12081) - http://www.bohemiancoding.com/sketch -->
    <title>flag</title>
    <desc>Created with Sketch.</desc>
    <defs></defs>
    <g id="Page-1" stroke="none" stroke-width="1" fill="none" fill-rule="evenodd" sketch:type="MSPage">
        <g id="flag" sketch:type="MSArtboardGroup" fill="#000000">
            <g id="ios-flag-outline" sketch:type="MSLayerGroup" transform="translate(74.000000, 57.000000)">
                <path d="M133.540856,8.9 C127.420233,9.67875 119.685992,10.846875 111.450973,10.846875 C98.5976654,10.846875 86.9684825,7.67625 75.1723735,5.173125 C63.2093385,2.614375 50.8568093,0 37.7809339,0 C11.6848249,0 2.83774319,5.618125 1.94747082,6.23 L0.0556420233,7.565 L0.0556420233,9.01125 L0.0556420233,98.956875 L0.0556420233,178 L8.95836576,178 L8.95836576,98.289375 C12.2968872,96.89875 21.0883268,94.45125 37.8365759,94.45125 C49.966537,94.45125 61.3175097,99.068125 73.3918288,101.6825 C85.6330739,104.296875 98.3194553,107.0225 112.063035,107.0225 C120.242412,107.0225 127.475875,105.91 133.596498,105.186875 C136.935019,104.7975 139.884047,104.408125 142.499222,103.963125 L142.499222,16.6875 L142.499222,7.509375 C139.884047,8.01 136.879377,8.455 133.540856,8.9 L133.540856,8.9 Z M133.540856,96.23125 C127.420233,97.01 120.242412,98.178125 112.007393,98.178125 C99.1540856,98.178125 86.9684825,95.56375 75.1723735,93.060625 C63.2093385,90.501875 50.9124514,85.6625 37.8365759,85.6625 C23.5365759,85.6625 14.5225681,87.33125 8.95836576,89 L8.95836576,12.626875 C12.2968872,11.23625 21.1439689,8.844375 37.8365759,8.844375 C49.966537,8.844375 61.3175097,11.23625 73.3918288,13.850625 C85.6330739,16.465 97.763035,19.746875 111.506615,19.746875 C119.685992,19.746875 127.475875,18.634375 133.596498,17.91125 L133.540856,96.23125 L133.540856,96.23125 Z" id="Shape" sketch:type="MSShapeGroup"></path>
            </g>
        </g>
    </g>
</svg>