<?xml version="1.0" encoding="UTF-8" standalone="no"?>
<svg width="291px" height="291px" viewBox="0 0 291 291" version="1.1" xmlns="http://www.w3.org/2000/svg" xmlns:xlink="http://www.w3.org/1999/xlink" xmlns:sketch="http://www.bohemiancoding.com/sketch/ns">
    <!-- Generator: Sketch 3.3.3 (12081) - http://www.bohemiancoding.com/sketch -->
    <title>heart</title>
    <desc>Created with Sketch.</desc>
    <defs></defs>
    <g id="Page-1" stroke="none" stroke-width="1" fill="none" fill-rule="evenodd" sketch:type="MSPage">
        <g id="heart" sketch:type="MSArtboardGroup" fill="#000000">
            <g id="ios-heart-outline" sketch:type="MSLayerGroup" transform="translate(56.000000, 75.000000)">
                <path d="M131.538616,0 C115.700625,0 98.5062054,7.04959943 90,21.15 C81.4941964,7.04959943 64.299375,0 48.4613839,0 C20.7510268,0 0,17.319767 0,46.3773835 C0,58.9103608 5.04723214,75.1878494 16.4422768,88.7002159 C27.8365179,102.213384 34.6146429,109.409591 56.6823214,123.950216 C78.75,138.491642 90,141 90,141 C90,141 101.25,138.491642 123.317679,123.950216 C145.384955,109.409591 152.163482,102.213384 163.557723,88.7002159 C174.952768,75.1878494 180,58.9103608 180,46.3773835 C180,17.319767 159.248973,0 131.538616,0 L131.538616,0 Z M158.637054,84.5763665 C147.848304,97.3705142 141.689732,104.162148 119.772723,118.603432 C103.606071,129.256943 93.5554018,133.144457 89.9995982,134.318923 C86.4437946,133.144057 76.3935268,129.256142 60.2264732,118.603432 C38.3098661,104.162148 32.1512946,97.3709148 21.3621429,84.5759659 C16.5145982,78.8274119 12.5803125,72.0485966 9.98517857,64.9709574 C7.65883929,58.6251563 6.42857143,52.1956364 6.42857143,46.3773835 C6.42857143,34.2465767 10.4990625,24.0885682 18.1996875,17.0017159 C21.8720089,13.6221222 26.2988839,10.9963977 31.3589732,9.19704545 C36.5600893,7.34682102 42.3140625,6.40909091 48.4613839,6.40909091 C63.7364732,6.40909091 77.8789286,13.4919375 84.4911161,24.4530852 L90,33.5852386 L95.5088839,24.4530852 C102.121473,13.4919375 116.263929,6.40909091 131.538616,6.40909091 C137.685938,6.40909091 143.439911,7.34682102 148.641027,9.19664489 C153.701116,10.9963977 158.127991,13.6221222 161.800313,17.0013153 C169.500938,24.0885682 173.571429,34.2465767 173.571429,46.3773835 C173.571429,52.1956364 172.341161,58.6251563 170.014018,64.9709574 C167.419286,72.048196 163.485,78.8274119 158.637054,84.5763665 L158.637054,84.5763665 Z" id="Shape" sketch:type="MSShapeGroup"></path>
            </g>
        </g>
    </g>
</svg>