<svg width="291px" height="291px" viewBox="0 0 291 291" id="svg-loader">
    <title>loading</title>
    <g id="Page-1" stroke="none" stroke-width="1" fill="none" fill-rule="evenodd">
        <g id="loading">
            <g id="loader" transform="translate(27.000000, 27.000000)">
              <circle id="pc-loading-circle" cx="119" cy="119" r="119"></circle>
              <circle id="pc-loading-circle-filled" cx="119" cy="119" r="119"></circle>
              <path d="M113.125,155.56 L113.125,83.62 C113.125,82.28 112.049219,81.2 110.694531,81.2 L96.4304688,81.2 C95.0757813,81.2 94,82.28 94,83.62 L94,155.56 C94,156.9 95.0757813,158 96.4304688,158 L110.694531,158 C112.049219,158 113.125,156.92 113.125,155.56 Z M142.569531,81.2 L128.305469,81.2 C126.970703,81.2 125.875,82.28 125.875,83.62 L125.875,155.56 C125.875,156.9 126.950781,158 128.305469,158 L142.569531,158 C143.904297,158 145,156.92 145,155.56 L145,83.62 C145,82.28 143.924219,81.2 142.569531,81.2 Z" id="pc-loading-pause"></path>
              <path d="M145.867913,115.349219 L95.565109,85.575 C94.9507788,85.215625 94.3183801,85 93.5956386,85 C91.6261682,85 90.0180685,86.6171875 90.0180685,88.59375 L90,88.59375 L90,150.40625 L90.0180685,150.40625 C90.0180685,152.382812 91.6261682,154 93.5956386,154 C94.3364486,154 94.9507788,153.748438 95.6193146,153.389063 L145.867913,123.650781 C147.060436,122.6625 147.819315,121.171094 147.819315,119.5 C147.819315,117.828906 147.060436,116.355469 145.867913,115.349219 L145.867913,115.349219 Z" id="pc-loading-play"></path>
          </g>
      </g>
    </g>
</svg>