<?xml version="1.0" encoding="UTF-8" standalone="no"?>
<svg width="291px" height="291px" viewBox="0 0 291 291" version="1.1" xmlns="http://www.w3.org/2000/svg" xmlns:xlink="http://www.w3.org/1999/xlink" xmlns:sketch="http://www.bohemiancoding.com/sketch/ns">
    <!-- Generator: Sketch 3.3.3 (12081) - http://www.bohemiancoding.com/sketch -->
    <title>lock</title>
    <desc>Created with Sketch.</desc>
    <defs></defs>
    <g id="Page-1" stroke="none" stroke-width="1" fill="none" fill-rule="evenodd" sketch:type="MSPage">
        <g id="lock" sketch:type="MSArtboardGroup" fill="#000000">
            <g id="ios-locked-outline" sketch:type="MSLayerGroup" transform="translate(65.000000, 41.000000)">
                <g id="Group" sketch:type="MSShapeGroup">
                    <path d="M132.825,88.4230769 L132.825,52.25 C132.825,23.3969471 109.398494,0 80.50805,0 C51.6015063,0 28.175,23.3969471 28.175,52.25 L28.175,88.4230769 L0,88.4230769 L0,209 L161,209 L161,88.4230769 L132.825,88.4230769 L132.825,88.4230769 Z M36.225,52.25 C36.225,27.8718582 56.0903875,8.03846154 80.50805,8.03846154 C104.917159,8.03846154 124.775,27.8718582 124.775,52.25 L124.775,88.4230769 L36.225,88.4230769 L36.225,52.25 L36.225,52.25 Z M152.95,200.961538 L8.05,200.961538 L8.05,96.4615385 L152.95,96.4615385 L152.95,200.961538 L152.95,200.961538 Z" id="Shape"></path>
                    <path d="M80.5,120.576923 C71.6082719,120.576923 64.4,127.774863 64.4,136.653846 C64.4,144.144688 69.5308688,150.439305 76.475,152.224346 L76.475,168.807692 L84.525,168.807692 L84.525,152.224346 C91.4691313,150.439305 96.6,144.144688 96.6,136.653846 C96.6,127.774863 89.3917281,120.576923 80.5,120.576923 L80.5,120.576923 Z M80.5,144.692308 C76.0614312,144.692308 72.45,141.086053 72.45,136.653846 C72.45,132.221639 76.0614312,128.615385 80.5,128.615385 C84.9385688,128.615385 88.55,132.221639 88.55,136.653846 C88.55,141.086053 84.9385688,144.692308 80.5,144.692308 L80.5,144.692308 Z" id="Shape"></path>
                </g>
            </g>
        </g>
    </g>
</svg>