<?xml version="1.0" encoding="UTF-8" standalone="no"?>
<svg width="291px" height="291px" viewBox="0 0 291 291" version="1.1" xmlns="http://www.w3.org/2000/svg" xmlns:xlink="http://www.w3.org/1999/xlink" xmlns:sketch="http://www.bohemiancoding.com/sketch/ns">
    <!-- Generator: Sketch 3.3.3 (12081) - http://www.bohemiancoding.com/sketch -->
    <title>pulse</title>
    <desc>Created with Sketch.</desc>
    <defs></defs>
    <g id="Page-1" stroke="none" stroke-width="1" fill="none" fill-rule="evenodd" sketch:type="MSPage">
        <g id="pulse" sketch:type="MSArtboardGroup" fill="#000000">
            <g id="ios-pulse" sketch:type="MSLayerGroup" transform="translate(65.000000, 73.000000)">
                <path d="M150.093541,83.8902743 C144.58482,83.8902743 139.980628,87.7575436 138.828227,92.9301746 L117.539479,92.9301746 L106.65012,60.0625436 C106.251434,58.8587905 105.118156,58.058217 103.850659,58.0817207 C102.584967,58.1077556 101.48416,58.9575062 101.135987,60.1771696 L81.5653764,128.634165 L60.5757327,2.41726933 C60.3505924,1.06490025 59.2093764,0.0567705736 57.8422984,0.00216957606 C56.4680045,-0.0480922693 55.2585969,0.863491272 54.9277416,2.19380299 L32.3812383,92.9301746 L0,92.9301746 L0,98.7157107 L34.636971,98.7157107 C35.9625568,98.7157107 37.1174833,97.8109975 37.4378753,96.5222693 L57.1683207,17.1190399 L77.9725122,142.221496 C78.1944053,143.555062 79.3085612,144.557045 80.6557951,144.634065 C80.7109978,144.637319 80.7665612,144.638766 80.8214031,144.638766 C82.1018886,144.638766 83.2384143,143.789015 83.5948864,142.542594 L104.114405,70.7672319 L112.717724,96.7345262 C113.109915,97.9173067 114.213608,98.7157107 115.457292,98.7157107 L139.014762,98.7157107 C140.418281,103.52096 144.845679,107.032419 150.094263,107.032419 C156.471073,107.032419 161.63992,101.851833 161.63992,95.4613466 C161.63992,89.0708603 156.470352,83.8902743 150.093541,83.8902743 L150.093541,83.8902743 Z" id="Shape" sketch:type="MSShapeGroup"></path>
            </g>
        </g>
    </g>
</svg>