<?xml version="1.0" encoding="UTF-8" standalone="no"?>
<svg width="291px" height="291px" viewBox="0 0 291 291" version="1.1" xmlns="http://www.w3.org/2000/svg" xmlns:xlink="http://www.w3.org/1999/xlink" xmlns:sketch="http://www.bohemiancoding.com/sketch/ns">
    <!-- Generator: Sketch 3.3.3 (12081) - http://www.bohemiancoding.com/sketch -->
    <title>settings</title>
    <desc>Created with Sketch.</desc>
    <defs></defs>
    <g id="Page-1" stroke="none" stroke-width="1" fill="none" fill-rule="evenodd" sketch:type="MSPage">
        <g id="settings" sketch:type="MSArtboardGroup" fill="#000000">
            <g id="ios-settings-strong" sketch:type="MSLayerGroup" transform="translate(57.000000, 76.000000)">
                <g id="Group" sketch:type="MSShapeGroup">
                    <path d="M0,116.886364 L112.206533,116.886364 C114.656188,111.313727 120.237805,107.409091 126.719925,107.409091 C133.202045,107.409091 138.784058,111.313727 141.233316,116.886364 L177.407895,116.886364 L177.407895,129.522727 L141.233316,129.522727 C138.783662,135.095364 133.202045,139 126.719925,139 C120.237805,139 114.655792,135.095364 112.206533,129.522727 L0,129.522727" id="Shape"></path>
                    <path d="M0,63.1818182 L36.1745785,63.1818182 C38.6242331,57.6091818 44.2058498,53.7045455 50.6879699,53.7045455 C57.1700901,53.7045455 62.7521028,57.6091818 65.2013613,63.1818182 L177.407895,63.1818182 L177.407895,75.8181818 L65.2013613,75.8181818 C62.7517068,81.3908182 57.1700901,85.2954545 50.6879699,85.2954545 C44.2058498,85.2954545 38.6238371,81.3908182 36.1745785,75.8181818 L0,75.8181818" id="Shape"></path>
                    <path d="M0,9.47727273 L112.206533,9.47727273 C114.656188,3.90463636 120.237805,0 126.719925,0 C133.202045,0 138.784058,3.90463636 141.233316,9.47727273 L177.407895,9.47727273 L177.407895,22.1136364 L141.233316,22.1136364 C138.783662,27.6862727 133.202045,31.5909091 126.719925,31.5909091 C120.237805,31.5909091 114.655792,27.6862727 112.206533,22.1136364 L0,22.1136364" id="Shape"></path>
                </g>
            </g>
        </g>
    </g>
</svg>