<svg width="291px" height="291px" viewBox="0 0 291 291" id="svg-trash">
    <title>trash</title>
    <g stroke="none" stroke-width="1" fill="none" fill-rule="evenodd">
        <g id="trash">
            <g id="trash-can" transform="translate(35.000000, 28.000000)">
                <g id="trash-cover">
                    <path d="M221.207143,30.5 L0.792857143,30.5" id="cover"></path>
                    <rect id="handle" x="74.5285714" y="0" width="72.9428571" height="27.7005632" rx="17"></rect>
                </g>
                <g id="trash-body" transform="translate(31.714286, 30.602740)">
                    <path d="M1.88533076e-15,5.00239624e-15 L6.11518214,183.280627 C6.11518214,183.280627 6.48140209,192.208815 10.3536598,197.782573 C14.2259175,203.356331 22.2260959,203.35633 22.2260959,203.35633 L129.522085,203.35633 C129.522085,203.35633 137.514899,204.241174 143.849813,197.782573 C150.184727,191.323971 150.03133,183.280627 150.03133,183.280627 L157.855999,5.00239624e-15 L1.88533076e-15,5.00239624e-15 Z" id="Path"></path>
                    <g id="details" transform="translate(38.057143, 29.602740)">
                        <path d="M39.5,1.58703797 L39.5,145.07484" id="Path-6"></path>
                        <path d="M82.0421317,1.1377177 L76.8947545,145.07484" id="Path-6-Copy"></path>
                        <path d="M1.19547991,1.1377177 L6.34285714,145.07484" id="Path-6-Copy-2"></path>
                    </g>
                </g>
            </g>
        </g>
    </g>
</svg>