<svg width="291px" height="291px" viewBox="0 0 291 291">
    <title>volume</title>
    <g stroke="none" stroke-width="1" fill="none" fill-rule="evenodd" sketch:type="MSPage">
        <g id="volume">
          <g id="volume-value">
            <path d="M224.979375,60 L215.884375,66.8800781 C232.00125,88.85625 241.63125,116.042578 241.63125,145.5 C241.63125,174.957422 232.00125,202.14375 215.8175,224.119922 L224.9125,231 C242.500625,207.153516 252.933125,177.5625 252.933125,145.5 C252.933125,113.4375 242.5675,83.8464844 224.979375,60 L224.979375,60 Z" id="vol-value-3"></path>
            <path d="M188.8,209.491406 C202.175,191.589844 210.2,169.480078 210.2,145.5 C210.2,121.519922 202.175,99.4101563 188.8,81.5085938 L179.705,88.2550781 C191.675625,104.286328 198.83125,124.058203 198.83125,145.5 C198.83125,166.941797 191.675625,186.713672 179.705,202.744922 L188.8,209.491406 L188.8,209.491406 Z" id="vol-value-2"></path>
            <path d="M157.435625,188.183203 C166.5975,176.226563 172.08125,161.53125 172.08125,145.5 C172.08125,129.46875 166.5975,114.773438 157.435625,102.816797 L148.4075,109.362891 C156.165,119.449219 160.779375,131.940234 160.779375,145.5 C160.779375,159.059766 156.165,171.483984 148.4075,181.637109 L157.435625,188.183203 L157.435625,188.183203 Z" id="vol-value-1"></path>
          </g>
          <path d="M77.720625,118.78125 L39,118.78125 L39,172.21875 L77.720625,172.21875 L124.6,209.625 L124.6,81.375 L77.720625,118.78125 Z" id="volume-body"></path>
        </g>
    </g>
</svg>