<svg width="291px" height="291px" viewBox="0 0 291 291" version="1.1" xmlns="http://www.w3.org/2000/svg" xmlns:xlink="http://www.w3.org/1999/xlink" xmlns:sketch="http://www.bohemiancoding.com/sketch/ns">
    <title>wine</title>
    <desc>Created with Sketch.</desc>
    <defs></defs>
    <g id="Page-1" stroke="none" stroke-width="1" fill="none" fill-rule="evenodd">
        <g id="wine">
            <g id="ios-wineglass-outline" sketch:type="MSLayerGroup" transform="translate(103.000000, 46.000000)">
                <path d="M46.5463918,123.03708 C46.5463918,113.275864 55.6154021,105.858228 64.3878454,98.6844554 C67.8930103,95.8180558 71.2013505,93.1111228 73.9271959,90.2616027 C85.6954536,77.9586942 85.556701,67.2771027 85.556701,58.6978929 L85.556701,56.8571429 C85.556701,37.2014509 71.896,1.52892411 71.362268,0 L43,0 L14.628866,0 C14.0955773,1.52892411 0.443298969,37.0904018 0.443298969,56.8571429 L0.443298969,58.6978929 C0.443298969,67.2588906 0.300113402,77.9586942 12.0688144,90.2620469 C14.7942165,93.111567 18.1052165,95.8185 21.6099381,98.6848996 C30.3823814,105.858672 39.4536082,113.276752 39.4536082,123.037525 L39.4536082,191.892857 L7.53608247,191.892857 L7.53608247,199 L43,199 L78.4639175,199 L78.4639175,191.892857 L46.5463918,191.892857 L46.5463918,123.03708 L46.5463918,123.03708 Z M19.3850206,7.10714286 L43,7.10714286 L66.6061134,7.10714286 C68.9817526,14.2098438 75.254433,34.9635893 77.6158866,49.75 L8.37569072,49.75 C10.7371443,34.9635893 17.0093814,14.2098438 19.3850206,7.10714286 L19.3850206,7.10714286 Z M43,107.236125 C41.6842887,107.236125 40.673567,106.827464 39.8215464,106.012808 C39.8219897,106.016806 39.8228763,106.020804 39.8237629,106.024357 C35.9209588,101.223926 30.8540515,97.0702455 26.0943505,93.1781964 C22.7620722,90.4530513 19.6146495,87.8793772 17.1889175,85.343904 C7.41240206,75.1238326 7.46825773,67.1691629 7.52721649,58.7476429 C7.53164948,58.1133304 7.49707216,57.4821272 7.53608247,56.8575871 L78.4550515,56.8575871 C78.4940619,57.4821272 78.4594845,58.1137746 78.4643608,58.7476429 C78.5233196,67.1691629 78.5791753,75.1238326 68.8026598,85.343904 C66.3769278,87.8793772 63.2303918,90.4530513 59.8981134,93.1781964 C55.1384124,97.0702455 50.0723918,101.224371 46.1695876,106.024357 C46.1704742,106.020359 46.1735773,106.016362 46.1740206,106.012808 C45.322,106.827464 44.3298969,107.236125 43,107.236125 L43,107.236125 Z" id="Shape"></path>
            </g>
        </g>
    </g>
</svg>